<svg id="appear_eye" xmlns="http://www.w3.org/2000/svg" viewBox="0 0 164 100.31"><defs><style>.cls-1{fill:#1d1d1b;}</style></defs><path class="cls-1" d="M166.23,82.07c-3-4.77-11.5-13.08-19.47-20.39a112.93,112.93,0,0,0-19.4-14.32C116,40.7,102.87,35.86,89.33,35c-.52,0-1-.07-1.57-.1l-1.35,0H84.18C69.39,35,55,40.13,42.64,47.36A113.41,113.41,0,0,0,23.23,61.68C15.27,69,6.79,77.3,3.76,82.07a6,6,0,0,0,0,5.86c3,4.77,11.51,13.08,19.47,20.39a113.41,113.41,0,0,0,19.41,14.32C55,129.87,69.39,135,84.18,135.14h2.23l1.35,0c.53,0,1,0,1.57-.1,13.54-.86,26.62-5.7,38-12.36a112.93,112.93,0,0,0,19.4-14.32c8-7.31,16.45-15.62,19.47-20.39a6,6,0,0,0,0-5.86ZM85.48,124a39,39,0,1,1,39-39A39,39,0,0,1,85.48,124Z" transform="translate(-3 -34.85)"/><path class="cls-1" d="M112.51,90.36a27.54,27.54,0,1,1-15.08-30.2A17.23,17.23,0,0,0,108,91,16.92,16.92,0,0,0,112.51,90.36Z" transform="translate(-3 -34.85)"/></svg>