<svg id="Capa_4" data-name="Capa 4" xmlns="http://www.w3.org/2000/svg" viewBox="0 0 781.29 790"><defs><style>.cls-1{fill:#1d1d1b;}</style></defs><path class="cls-1" d="M780.64,352H520.84a130,130,0,0,0-241.68,0H19.36a10,10,0,0,1-9.89-11.53C38.17,150.55,202.09,5,400,5S761.83,150.55,790.53,340.46A10,10,0,0,1,780.64,352Z" transform="translate(-9.35 -5)"/><path class="cls-1" d="M780.64,448a10,10,0,0,1,9.89,11.53C761.83,649.45,597.91,795,400,795S38.17,649.45,9.47,459.54A10,10,0,0,1,19.36,448h259.8a130,130,0,0,0,241.68,0Z" transform="translate(-9.35 -5)"/></svg>